<svg xmlns="http://www.w3.org/2000/svg" xmlns:xlink="http://www.w3.org/1999/xlink" width="360" zoomAndPan="magnify" viewBox="290 118 360 124" height="124" preserveAspectRatio="xMidYMid meet" version="1.0"><defs><g/><clipPath id="e24cf2bc88"><path d="M 297.917969 156 L 351 156 L 351 232.449219 L 297.917969 232.449219 Z M 297.917969 156 " clip-rule="nonzero"/></clipPath><clipPath id="a5c7e7e33d"><path d="M 327 127.449219 L 402.167969 127.449219 L 402.167969 181 L 327 181 Z M 327 127.449219 " clip-rule="nonzero"/></clipPath><clipPath id="c23cd86d97"><path d="M 361 191 L 402.167969 191 L 402.167969 232.449219 L 361 232.449219 Z M 361 191 " clip-rule="nonzero"/></clipPath><clipPath id="e2a91bd110"><path d="M 0.761719 0.839844 L 229.238281 0.839844 L 229.238281 66 L 0.761719 66 Z M 0.761719 0.839844 " clip-rule="nonzero"/></clipPath><clipPath id="6324c1ba5e"><rect x="0" width="230" y="0" height="66"/></clipPath><clipPath id="ea39ba0349"><rect x="0" width="230" y="0" height="114"/></clipPath></defs><g clip-path="url(#e24cf2bc88)"><path fill="#5e17eb" d="M 327.164062 209.078125 L 327.164062 156.769531 L 320.789062 156.769531 C 309.417969 156.769531 299.890625 165.027344 297.90625 175.84375 L 297.90625 209.078125 C 297.90625 221.871094 308.375 232.335938 321.167969 232.335938 L 350.417969 232.335938 C 337.621094 232.335938 327.164062 221.875 327.164062 209.078125 Z M 327.164062 209.078125 " fill-opacity="1" fill-rule="nonzero"/></g><g clip-path="url(#a5c7e7e33d)"><path fill="#5e17eb" d="M 402.351562 180.023438 L 402.351562 150.773438 C 402.351562 137.980469 391.882812 127.519531 379.085938 127.519531 L 350.417969 127.519531 C 337.621094 127.519531 327.164062 137.980469 327.164062 150.777344 L 327.164062 156.769531 L 379.085938 156.769531 C 391.882812 156.769531 402.351562 167.226562 402.351562 180.023438 Z M 402.351562 180.023438 " fill-opacity="1" fill-rule="nonzero"/></g><g clip-path="url(#c23cd86d97)"><path fill="#5e17eb" d="M 391.609375 191.683594 L 372.902344 191.304688 C 366.871094 191.179688 361.832031 196.015625 361.710938 202.050781 L 361.332031 220.757812 C 361.207031 226.789062 366.042969 231.824219 372.078125 231.949219 L 390.785156 232.328125 C 396.816406 232.449219 401.855469 227.613281 401.976562 221.582031 L 402.355469 202.875 C 402.476562 196.839844 397.640625 191.804688 391.609375 191.683594 Z M 391.609375 191.683594 " fill-opacity="1" fill-rule="nonzero"/></g><g transform="matrix(1, 0, 0, 1, 413, 123)"><g clip-path="url(#ea39ba0349)"><g clip-path="url(#e2a91bd110)"><g transform="matrix(1, 0, 0, 1, -0.000000000000056843, 0)"><g clip-path="url(#6324c1ba5e)"><g fill="#001f3e" fill-opacity="1"><g transform="translate(2.976001, 51.255388)"><g><path d="M -1.484375 0 L 21.640625 -45.609375 L 29.484375 -45.609375 L 52.484375 0 L 42.578125 0 L 37 -10.890625 L 13.734375 -10.890625 L 8.171875 0 Z M 17.5 -18.40625 L 33.234375 -18.40625 L 28.703125 -28.1875 L 25.59375 -36.546875 L 22.21875 -28.0625 Z M 17.5 -18.40625 "/></g></g></g><g fill="#001f3e" fill-opacity="1"><g transform="translate(54.875638, 51.255388)"><g><path d="M 3.171875 0 L 3.171875 -45.359375 L 25.53125 -45.359375 C 29.070312 -45.359375 32.191406 -44.796875 34.890625 -43.671875 C 37.585938 -42.546875 39.703125 -40.847656 41.234375 -38.578125 C 42.773438 -36.316406 43.546875 -33.414062 43.546875 -29.875 C 43.546875 -26.238281 42.722656 -23.253906 41.078125 -20.921875 C 39.441406 -18.597656 37.25 -16.875 34.5 -15.75 C 31.757812 -14.625 28.726562 -14.0625 25.40625 -14.0625 L 12.109375 -14.0625 L 12.109375 0 Z M 12.109375 -21.578125 L 25.46875 -21.578125 C 28.144531 -21.617188 30.359375 -22.242188 32.109375 -23.453125 C 33.859375 -24.660156 34.734375 -26.800781 34.734375 -29.875 C 34.734375 -31.863281 34.320312 -33.414062 33.5 -34.53125 C 32.675781 -35.65625 31.570312 -36.441406 30.1875 -36.890625 C 28.8125 -37.347656 27.257812 -37.578125 25.53125 -37.578125 L 12.109375 -37.578125 Z M 12.109375 -21.578125 "/></g></g></g><g fill="#001f3e" fill-opacity="1"><g transform="translate(100.425489, 51.255388)"><g><path d="M 3.171875 0 L 3.171875 -45.359375 L 25.53125 -45.359375 C 29.070312 -45.359375 32.191406 -44.796875 34.890625 -43.671875 C 37.585938 -42.546875 39.703125 -40.847656 41.234375 -38.578125 C 42.773438 -36.316406 43.546875 -33.414062 43.546875 -29.875 C 43.546875 -26.238281 42.722656 -23.253906 41.078125 -20.921875 C 39.441406 -18.597656 37.25 -16.875 34.5 -15.75 C 31.757812 -14.625 28.726562 -14.0625 25.40625 -14.0625 L 12.109375 -14.0625 L 12.109375 0 Z M 12.109375 -21.578125 L 25.46875 -21.578125 C 28.144531 -21.617188 30.359375 -22.242188 32.109375 -23.453125 C 33.859375 -24.660156 34.734375 -26.800781 34.734375 -29.875 C 34.734375 -31.863281 34.320312 -33.414062 33.5 -34.53125 C 32.675781 -35.65625 31.570312 -36.441406 30.1875 -36.890625 C 28.8125 -37.347656 27.257812 -37.578125 25.53125 -37.578125 L 12.109375 -37.578125 Z M 12.109375 -21.578125 "/></g></g></g><g fill="#001f3e" fill-opacity="1"><g transform="translate(145.975339, 51.255388)"><g><path d="M 3.171875 0 L 3.171875 -45.359375 L 12.3125 -45.359375 L 12.3125 -7.78125 L 39.390625 -7.78125 L 39.390625 0 Z M 3.171875 0 "/></g></g></g><g fill="#001f3e" fill-opacity="1"><g transform="translate(178.630241, 51.255388)"><g><path d="M 19.375 0 L 19.375 -17.6875 L -1.6875 -45.359375 L 8.8125 -45.359375 L 23.90625 -25.265625 L 39.078125 -45.359375 L 49.5625 -45.359375 L 28.453125 -17.6875 L 28.453125 0 Z M 19.375 0 "/></g></g></g></g></g></g><g fill="#001f3e" fill-opacity="1"><g transform="translate(2.976001, 100.221684)"><g><path d="M 18.515625 0 L 18.515625 -38.0625 L 0.546875 -38.0625 L 0.546875 -42.234375 L 41.453125 -42.234375 L 41.453125 -38.0625 L 23.46875 -38.0625 L 23.46875 0 Z M 18.515625 0 "/></g></g></g><g fill="#001f3e" fill-opacity="1"><g transform="translate(42.552203, 100.221684)"><g><path d="M 25.515625 0.65625 C 22.253906 0.65625 19.265625 0.113281 16.546875 -0.96875 C 13.835938 -2.050781 11.488281 -3.566406 9.5 -5.515625 C 7.507812 -7.472656 5.96875 -9.796875 4.875 -12.484375 C 3.789062 -15.179688 3.25 -18.117188 3.25 -21.296875 C 3.25 -24.472656 3.789062 -27.394531 4.875 -30.0625 C 5.96875 -32.738281 7.507812 -35.050781 9.5 -37 C 11.488281 -38.957031 13.835938 -40.476562 16.546875 -41.5625 C 19.265625 -42.644531 22.253906 -43.1875 25.515625 -43.1875 C 28.773438 -43.1875 31.757812 -42.644531 34.46875 -41.5625 C 37.1875 -40.476562 39.539062 -38.957031 41.53125 -37 C 43.519531 -35.050781 45.054688 -32.738281 46.140625 -30.0625 C 47.234375 -27.394531 47.78125 -24.472656 47.78125 -21.296875 C 47.78125 -18.117188 47.234375 -15.179688 46.140625 -12.484375 C 45.054688 -9.796875 43.519531 -7.472656 41.53125 -5.515625 C 39.539062 -3.566406 37.1875 -2.050781 34.46875 -0.96875 C 31.757812 0.113281 28.773438 0.65625 25.515625 0.65625 Z M 25.515625 -3.5625 C 28.898438 -3.5625 31.890625 -4.3125 34.484375 -5.8125 C 37.078125 -7.320312 39.101562 -9.414062 40.5625 -12.09375 C 42.03125 -14.769531 42.765625 -17.835938 42.765625 -21.296875 C 42.765625 -24.796875 42.03125 -27.867188 40.5625 -30.515625 C 39.101562 -33.171875 37.078125 -35.242188 34.484375 -36.734375 C 31.890625 -38.222656 28.898438 -38.96875 25.515625 -38.96875 C 22.140625 -38.96875 19.15625 -38.222656 16.5625 -36.734375 C 13.96875 -35.242188 11.9375 -33.171875 10.46875 -30.515625 C 9 -27.867188 8.265625 -24.796875 8.265625 -21.296875 C 8.265625 -17.835938 9 -14.769531 10.46875 -12.09375 C 11.9375 -9.414062 13.96875 -7.320312 16.5625 -5.8125 C 19.15625 -4.3125 22.140625 -3.5625 25.515625 -3.5625 Z M 25.515625 -3.5625 "/></g></g></g><g fill="#001f3e" fill-opacity="1"><g transform="translate(93.108411, 100.221684)"><g><path d="M 25.515625 0.65625 C 22.253906 0.65625 19.265625 0.113281 16.546875 -0.96875 C 13.835938 -2.050781 11.488281 -3.566406 9.5 -5.515625 C 7.507812 -7.472656 5.96875 -9.796875 4.875 -12.484375 C 3.789062 -15.179688 3.25 -18.117188 3.25 -21.296875 C 3.25 -24.472656 3.789062 -27.394531 4.875 -30.0625 C 5.96875 -32.738281 7.507812 -35.050781 9.5 -37 C 11.488281 -38.957031 13.835938 -40.476562 16.546875 -41.5625 C 19.265625 -42.644531 22.253906 -43.1875 25.515625 -43.1875 C 28.773438 -43.1875 31.757812 -42.644531 34.46875 -41.5625 C 37.1875 -40.476562 39.539062 -38.957031 41.53125 -37 C 43.519531 -35.050781 45.054688 -32.738281 46.140625 -30.0625 C 47.234375 -27.394531 47.78125 -24.472656 47.78125 -21.296875 C 47.78125 -18.117188 47.234375 -15.179688 46.140625 -12.484375 C 45.054688 -9.796875 43.519531 -7.472656 41.53125 -5.515625 C 39.539062 -3.566406 37.1875 -2.050781 34.46875 -0.96875 C 31.757812 0.113281 28.773438 0.65625 25.515625 0.65625 Z M 25.515625 -3.5625 C 28.898438 -3.5625 31.890625 -4.3125 34.484375 -5.8125 C 37.078125 -7.320312 39.101562 -9.414062 40.5625 -12.09375 C 42.03125 -14.769531 42.765625 -17.835938 42.765625 -21.296875 C 42.765625 -24.796875 42.03125 -27.867188 40.5625 -30.515625 C 39.101562 -33.171875 37.078125 -35.242188 34.484375 -36.734375 C 31.890625 -38.222656 28.898438 -38.96875 25.515625 -38.96875 C 22.140625 -38.96875 19.15625 -38.222656 16.5625 -36.734375 C 13.96875 -35.242188 11.9375 -33.171875 10.46875 -30.515625 C 9 -27.867188 8.265625 -24.796875 8.265625 -21.296875 C 8.265625 -17.835938 9 -14.769531 10.46875 -12.09375 C 11.9375 -9.414062 13.96875 -7.320312 16.5625 -5.8125 C 19.15625 -4.3125 22.140625 -3.5625 25.515625 -3.5625 Z M 25.515625 -3.5625 "/></g></g></g><g fill="#001f3e" fill-opacity="1"><g transform="translate(143.664613, 100.221684)"><g><path d="M 5.609375 0 L 5.609375 -42.234375 L 10.625 -42.234375 L 10.625 -4.15625 L 38.25 -4.15625 L 38.25 0 Z M 5.609375 0 "/></g></g></g><g fill="#001f3e" fill-opacity="1"><g transform="translate(181.973906, 100.221684)"><g><path d="M 24.1875 0.90625 C 22.34375 0.90625 20.503906 0.785156 18.671875 0.546875 C 16.835938 0.304688 15.140625 -0.0546875 13.578125 -0.546875 C 11.640625 -1.148438 9.828125 -1.960938 8.140625 -2.984375 C 6.453125 -4.015625 5.082031 -5.28125 4.03125 -6.78125 C 2.988281 -8.289062 2.429688 -10.09375 2.359375 -12.1875 L 7.234375 -12.375 C 7.273438 -10.882812 7.96875 -9.425781 9.3125 -8 C 10.664062 -6.570312 12.328125 -5.515625 14.296875 -4.828125 C 15.785156 -4.304688 17.363281 -3.921875 19.03125 -3.671875 C 20.695312 -3.429688 22.378906 -3.3125 24.078125 -3.3125 C 26.566406 -3.3125 28.976562 -3.59375 31.3125 -4.15625 C 33.5625 -4.71875 35.453125 -5.539062 36.984375 -6.625 C 38.515625 -7.71875 39.359375 -9.066406 39.515625 -10.671875 C 39.554688 -10.878906 39.578125 -11.09375 39.578125 -11.3125 C 39.578125 -11.53125 39.578125 -11.722656 39.578125 -11.890625 C 39.578125 -13.535156 39.191406 -14.835938 38.421875 -15.796875 C 37.660156 -16.765625 36.65625 -17.488281 35.40625 -17.96875 C 34.164062 -18.457031 32.832031 -18.78125 31.40625 -18.9375 C 29.976562 -19.101562 28.578125 -19.207031 27.203125 -19.25 C 25.835938 -19.289062 24.65625 -19.347656 23.65625 -19.421875 C 22.082031 -19.546875 20.390625 -19.65625 18.578125 -19.75 C 16.765625 -19.851562 14.960938 -20.066406 13.171875 -20.390625 C 11.390625 -20.710938 9.753906 -21.242188 8.265625 -21.984375 C 6.773438 -22.734375 5.585938 -23.78125 4.703125 -25.125 C 3.816406 -26.46875 3.375 -28.226562 3.375 -30.40625 C 3.375 -32.414062 3.882812 -34.164062 4.90625 -35.65625 C 5.9375 -37.144531 7.328125 -38.410156 9.078125 -39.453125 C 10.828125 -40.492188 12.789062 -41.300781 14.96875 -41.875 C 16.332031 -42.226562 17.75 -42.484375 19.21875 -42.640625 C 20.6875 -42.804688 22.179688 -42.890625 23.703125 -42.890625 C 26.242188 -42.890625 28.695312 -42.609375 31.0625 -42.046875 C 33.351562 -41.523438 35.414062 -40.75 37.25 -39.71875 C 39.082031 -38.695312 40.5625 -37.398438 41.6875 -35.828125 C 42.8125 -34.265625 43.394531 -32.4375 43.4375 -30.34375 L 38.484375 -30.21875 C 38.410156 -32.59375 37.566406 -34.351562 35.953125 -35.5 C 34.347656 -36.644531 32.359375 -37.476562 29.984375 -38 C 28.054688 -38.488281 25.984375 -38.734375 23.765625 -38.734375 C 22.484375 -38.734375 21.195312 -38.660156 19.90625 -38.515625 C 18.625 -38.378906 17.398438 -38.148438 16.234375 -37.828125 C 15.023438 -37.503906 13.816406 -37.050781 12.609375 -36.46875 C 11.398438 -35.882812 10.40625 -35.117188 9.625 -34.171875 C 8.84375 -33.234375 8.453125 -32.019531 8.453125 -30.53125 C 8.453125 -28.84375 8.890625 -27.554688 9.765625 -26.671875 C 10.648438 -25.785156 11.847656 -25.160156 13.359375 -24.796875 C 14.867188 -24.429688 16.546875 -24.1875 18.390625 -24.0625 C 20.242188 -23.945312 22.117188 -23.8125 24.015625 -23.65625 C 25.703125 -23.53125 27.488281 -23.394531 29.375 -23.25 C 31.269531 -23.113281 33.109375 -22.863281 34.890625 -22.5 C 36.679688 -22.132812 38.3125 -21.550781 39.78125 -20.75 C 41.25 -19.945312 42.414062 -18.832031 43.28125 -17.40625 C 44.144531 -15.976562 44.578125 -14.117188 44.578125 -11.828125 C 44.578125 -11.617188 44.578125 -11.394531 44.578125 -11.15625 C 44.578125 -10.914062 44.554688 -10.675781 44.515625 -10.4375 C 44.359375 -8.34375 43.613281 -6.582031 42.28125 -5.15625 C 40.957031 -3.726562 39.320312 -2.582031 37.375 -1.71875 C 35.425781 -0.851562 33.425781 -0.203125 31.375 0.234375 C 29.082031 0.679688 26.6875 0.90625 24.1875 0.90625 Z M 24.1875 0.90625 "/></g></g></g></g></g></svg>