<svg xmlns="http://www.w3.org/2000/svg" xmlns:xlink="http://www.w3.org/1999/xlink" width="400" zoomAndPan="magnify" viewBox="139.4 139.4 21 21" height="400" preserveAspectRatio="xMidYMid meet" version="1.0"><defs><clipPath id="8428397265"><path d="M 140.382812 145 L 151 145 L 151 159.832031 L 140.382812 159.832031 Z M 140.382812 145 " clip-rule="nonzero"/></clipPath><clipPath id="ba8d8d7216"><path d="M 145 140.332031 L 159.882812 140.332031 L 159.882812 150 L 145 150 Z M 145 140.332031 " clip-rule="nonzero"/></clipPath><clipPath id="b2e1d05fe6"><path d="M 152 152 L 159.882812 152 L 159.882812 159.832031 L 152 159.832031 Z M 152 152 " clip-rule="nonzero"/></clipPath></defs><g clip-path="url(#8428397265)"><path fill="#5e17eb" d="M 145.757812 155.34375 L 145.757812 145.722656 L 144.585938 145.722656 C 142.496094 145.722656 140.742188 147.242188 140.378906 149.230469 L 140.378906 155.34375 C 140.378906 157.695312 142.304688 159.621094 144.65625 159.621094 L 150.035156 159.621094 C 147.683594 159.621094 145.757812 157.695312 145.757812 155.34375 Z M 145.757812 155.34375 " fill-opacity="1" fill-rule="nonzero"/></g><g clip-path="url(#ba8d8d7216)"><path fill="#5e17eb" d="M 159.585938 150 L 159.585938 144.621094 C 159.585938 142.269531 157.660156 140.34375 155.308594 140.34375 L 150.035156 140.34375 C 147.683594 140.34375 145.757812 142.269531 145.757812 144.621094 L 145.757812 145.722656 L 155.308594 145.722656 C 157.660156 145.722656 159.585938 147.644531 159.585938 150 Z M 159.585938 150 " fill-opacity="1" fill-rule="nonzero"/></g><g clip-path="url(#b2e1d05fe6)"><path fill="#5e17eb" d="M 157.609375 152.144531 L 154.171875 152.074219 C 153.0625 152.050781 152.136719 152.941406 152.113281 154.050781 L 152.042969 157.492188 C 152.019531 158.601562 152.910156 159.527344 154.019531 159.546875 L 157.460938 159.617188 C 158.570312 159.640625 159.496094 158.75 159.515625 157.640625 L 159.585938 154.203125 C 159.609375 153.09375 158.71875 152.167969 157.609375 152.144531 Z M 157.609375 152.144531 " fill-opacity="1" fill-rule="nonzero"/></g></svg>